<svg width="31" height="24" viewBox="0 0 31 24" fill="none" xmlns="http://www.w3.org/2000/svg">
<path d="M0 2C0 0.895431 0.89543 0 2 0H29C30.1046 0 31 0.895431 31 2C31 3.10457 30.1046 4 29 4H2C0.89543 4 0 3.10457 0 2ZM7.75 12C7.75 10.8954 8.64543 10 9.75 10H29C30.1046 10 31 10.8954 31 12C31 13.1046 30.1046 14 29 14H9.75C8.64543 14 7.75 13.1046 7.75 12ZM17.4375 22C17.4375 20.8954 18.3329 20 19.4375 20H29C30.1046 20 31 20.8954 31 22C31 23.1046 30.1046 24 29 24H19.4375C18.3329 24 17.4375 23.1046 17.4375 22Z" fill="#E9E8E8"/>
</svg>
