<svg width="27" height="27" viewBox="0 0 27 27" fill="none" xmlns="http://www.w3.org/2000/svg">
<path d="M25.3077 27C10.9116 27.0202 -0.0149275 15.9637 0.000259954 1.69256C0.000259954 0.759374 0.75626 0 1.68776 0H6.14276C6.97807 0 7.68851 0.614249 7.81169 1.44112C8.10549 3.42403 8.68231 5.35451 9.5245 7.17356L9.69832 7.54818C9.81507 7.80027 9.84019 8.08521 9.76933 8.35385C9.69848 8.62248 9.5361 8.85796 9.31019 9.01968C7.92982 10.0052 7.40332 11.988 8.47826 13.5337C9.82657 15.4744 11.5259 17.1754 13.4665 18.5237C15.0139 19.5969 16.9967 19.0704 17.9806 17.6917C18.1421 17.4651 18.3778 17.3022 18.6468 17.231C18.9158 17.1598 19.2013 17.1849 19.4537 17.3019L19.8267 17.474C21.6458 18.3178 23.5763 18.8949 25.5591 19.1885C26.386 19.3117 27.0002 20.0222 27.0002 20.8592V25.3125C27.0002 25.5342 26.9565 25.7538 26.8716 25.9586C26.7867 26.1635 26.6623 26.3496 26.5054 26.5063C26.3485 26.663 26.1623 26.7873 25.9574 26.872C25.7524 26.9567 25.5328 27.0002 25.3111 27H25.3077Z" fill="#E9E8E8"/>
</svg>
