<svg width="250" height="250" viewBox="0 0 250 250" fill="none" xmlns="http://www.w3.org/2000/svg">
<path d="M188.801 182.38L185.102 181.765L185.9 185.428L185.167 186.199L184.136 181.166C184.089 180.915 184.058 180.676 184.045 180.45C184.028 180.228 184.038 180.016 184.074 179.815C184.111 179.614 184.178 179.42 184.275 179.233C184.369 179.05 184.502 178.867 184.674 178.686L184.879 178.471L185.504 179.067L185.311 179.27C185.205 179.382 185.117 179.493 185.048 179.604C184.979 179.715 184.927 179.832 184.893 179.953C184.862 180.079 184.848 180.217 184.852 180.367C184.852 180.522 184.872 180.695 184.91 180.887L189.529 181.615L188.801 182.38Z" fill="white"/>
<path d="M181.177 184.009L180.782 184.841C180.504 184.681 180.231 184.642 179.961 184.724C179.696 184.81 179.435 184.966 179.18 185.193L178.234 186.031C177.931 186.3 177.743 186.555 177.672 186.797C177.601 187.038 177.661 187.266 177.852 187.482C177.934 187.574 178.026 187.641 178.129 187.685C178.228 187.733 178.339 187.749 178.461 187.734C178.582 187.726 178.717 187.681 178.865 187.599C179.013 187.525 179.175 187.41 179.351 187.254L180.62 186.129L181.108 186.68L179.845 187.8C179.526 188.083 179.35 188.339 179.317 188.567C179.288 188.8 179.352 189.004 179.507 189.179C179.702 189.399 179.923 189.491 180.171 189.457C180.422 189.427 180.687 189.288 180.966 189.04L181.912 188.201C182.152 187.989 182.324 187.757 182.43 187.507C182.535 187.264 182.525 186.995 182.399 186.7L183.272 186.407C183.447 186.837 183.454 187.255 183.293 187.66C183.133 188.066 182.851 188.448 182.448 188.806L181.515 189.634C181.004 190.087 180.526 190.332 180.082 190.37C179.637 190.415 179.254 190.256 178.932 189.893C178.709 189.641 178.587 189.379 178.565 189.106C178.544 188.832 178.633 188.539 178.833 188.226C178.463 188.419 178.136 188.489 177.852 188.434C177.564 188.383 177.307 188.229 177.08 187.974C176.762 187.615 176.654 187.215 176.756 186.776C176.861 186.34 177.177 185.889 177.704 185.421L178.643 184.588C179.062 184.216 179.489 183.97 179.923 183.849C180.353 183.731 180.771 183.784 181.177 184.009Z" fill="white"/>
<path d="M173.197 193.138L174.597 195.028L173.851 195.58L170.556 191.132L171.302 190.579L172.692 192.456L176.119 189.918L174.728 188.041L175.474 187.489L178.769 191.938L178.023 192.49L176.624 190.6L173.197 193.138Z" fill="white"/>
<path d="M163.415 195.565L164.264 195.053L165.501 195.802L168.583 193.943L168.498 192.5L169.347 191.987L169.651 198.269L168.836 198.761L163.415 195.565ZM168.785 197.763L168.657 194.824L166.252 196.274L168.785 197.763Z" fill="white"/>
<path d="M160.347 203.236L159.963 202.453L162.103 201.402L160.048 197.215L160.881 196.807L162.936 200.993L165.083 199.939L165.468 200.722L160.347 203.236Z" fill="white"/>
<path d="M158.25 204.128L157.401 201.969L154.773 203.002C154.48 203.117 154.206 203.193 153.951 203.23C153.699 203.273 153.469 203.265 153.264 203.209C153.053 203.154 152.868 203.049 152.71 202.893C152.546 202.74 152.41 202.524 152.301 202.246C152.194 201.973 152.146 201.722 152.16 201.493C152.17 201.272 152.234 201.069 152.351 200.886C152.463 200.704 152.625 200.54 152.836 200.394C153.05 200.252 153.303 200.124 153.596 200.009L157.081 198.64L159.106 203.792L158.25 204.128ZM153.88 200.731C153.528 200.87 153.291 201.032 153.169 201.217C153.049 201.408 153.042 201.639 153.15 201.912C153.257 202.185 153.418 202.348 153.634 202.401C153.851 202.459 154.136 202.418 154.489 202.28L157.117 201.247L156.508 199.698L153.88 200.731Z" fill="white"/>
<path d="M149.127 207.415L143.23 208.894L141.883 203.525L142.783 203.299L143.924 207.846L148.021 206.818L146.88 202.271L147.78 202.045L149.127 207.415Z" fill="white"/>
<path d="M136.865 210.064C136.412 210.129 135.996 210.122 135.618 210.042C135.234 209.963 134.901 209.817 134.617 209.605C134.328 209.399 134.093 209.134 133.912 208.81C133.73 208.486 133.608 208.11 133.546 207.682L133.545 207.674C133.483 207.247 133.493 206.849 133.575 206.482C133.656 206.114 133.806 205.791 134.025 205.511C134.238 205.233 134.517 205.001 134.862 204.816C135.202 204.633 135.598 204.508 136.052 204.442L137.248 204.269C137.702 204.204 138.118 204.211 138.496 204.291C138.874 204.371 139.207 204.514 139.496 204.72C139.779 204.927 140.012 205.195 140.194 205.524C140.376 205.854 140.498 206.232 140.56 206.66L140.561 206.668C140.623 207.095 140.613 207.49 140.531 207.852C140.448 208.214 140.301 208.535 140.088 208.813C139.87 209.098 139.592 209.333 139.252 209.516C138.912 209.7 138.515 209.825 138.061 209.891L136.865 210.064ZM136.174 205.281C135.535 205.374 135.067 205.622 134.77 206.026C134.473 206.43 134.368 206.936 134.456 207.543L134.457 207.551C134.5 207.851 134.585 208.117 134.709 208.347C134.834 208.576 134.993 208.764 135.187 208.908C135.38 209.053 135.61 209.151 135.876 209.204C136.138 209.264 136.427 209.27 136.744 209.224L137.94 209.051C138.256 209.006 138.532 208.917 138.766 208.786C139.001 208.661 139.191 208.501 139.336 208.308C139.48 208.115 139.58 207.89 139.634 207.634C139.689 207.378 139.694 207.1 139.651 206.799L139.65 206.791C139.606 206.49 139.522 206.222 139.396 205.987C139.271 205.758 139.112 205.57 138.919 205.426C138.725 205.281 138.498 205.18 138.236 205.121C137.975 205.067 137.686 205.063 137.369 205.108L136.174 205.281Z" fill="white"/>
<path d="M132.222 203.841L132.316 205.887L131.524 205.923C131.297 206.206 131.141 206.645 131.056 207.242C130.971 207.844 130.928 208.601 130.927 209.514L130.939 210.643L126.024 210.867L125.81 206.183L124.899 206.225L124.806 204.179L125.733 204.137L125.788 205.336L131.342 205.083L131.287 203.884L132.222 203.841ZM130.539 205.912L126.735 206.085L126.915 210.033L130.007 209.892L130 209.556C129.999 209.172 130.006 208.801 130.022 208.442C130.037 208.089 130.065 207.754 130.104 207.437C130.138 207.126 130.191 206.841 130.265 206.581C130.333 206.322 130.425 206.099 130.539 205.912Z" fill="white"/>
<path d="M120.061 210.701C119.293 210.663 118.732 210.457 118.377 210.082C118.021 209.712 117.859 209.215 117.889 208.592L117.89 208.584C117.921 207.955 118.131 207.472 118.522 207.133C118.912 206.8 119.49 206.652 120.257 206.69L122.75 206.812L122.825 205.294L123.744 205.339L123.472 210.869L120.061 210.701ZM122.708 207.667L120.216 207.545C119.31 207.5 118.838 207.862 118.801 208.629L118.8 208.637C118.763 209.398 119.197 209.802 120.103 209.846L122.596 209.968L122.708 207.667Z" fill="white"/>
<path d="M111.974 209.942C111.52 209.877 111.123 209.752 110.783 209.568C110.438 209.383 110.159 209.148 109.947 208.864C109.729 208.585 109.579 208.264 109.497 207.902C109.415 207.539 109.405 207.145 109.467 206.717L109.468 206.709C109.53 206.282 109.652 205.903 109.835 205.574C110.017 205.245 110.253 204.977 110.541 204.771C110.824 204.564 111.158 204.421 111.541 204.342C111.919 204.262 112.335 204.255 112.789 204.321L113.985 204.495C114.438 204.561 114.835 204.686 115.175 204.87C115.515 205.054 115.794 205.285 116.012 205.565C116.225 205.844 116.372 206.167 116.453 206.534C116.535 206.902 116.544 207.299 116.482 207.727L116.481 207.735C116.419 208.162 116.297 208.538 116.116 208.862C115.934 209.186 115.701 209.451 115.418 209.658C115.129 209.869 114.795 210.015 114.417 210.095C114.039 210.175 113.623 210.182 113.169 210.116L111.974 209.942ZM112.667 205.161C112.029 205.068 111.51 205.173 111.11 205.476C110.71 205.779 110.466 206.234 110.378 206.841L110.377 206.849C110.333 207.15 110.339 207.428 110.393 207.684C110.448 207.94 110.547 208.165 110.692 208.358C110.836 208.551 111.029 208.711 111.269 208.838C111.503 208.969 111.779 209.057 112.095 209.103L113.291 209.277C113.607 209.323 113.897 209.316 114.159 209.257C114.42 209.203 114.647 209.104 114.84 208.96C115.034 208.815 115.193 208.628 115.318 208.399C115.443 208.169 115.527 207.904 115.571 207.603L115.572 207.595C115.616 207.294 115.611 207.013 115.557 206.752C115.502 206.496 115.403 206.271 115.258 206.078C115.114 205.885 114.925 205.722 114.69 205.591C114.455 205.466 114.18 205.38 113.863 205.334L112.667 205.161Z" fill="white"/>
<path d="M108.542 203.69L107.227 209.067L102.052 207.802L102.242 207.025L106.523 208.072L106.898 206.541L104.155 205.87C103.849 205.795 103.581 205.7 103.352 205.583C103.121 205.472 102.937 205.336 102.801 205.176C102.659 205.016 102.567 204.828 102.526 204.615C102.48 204.401 102.49 204.156 102.557 203.882C102.627 203.597 102.733 203.365 102.876 203.185C103.012 203.01 103.181 202.881 103.382 202.799C103.578 202.715 103.805 202.674 104.063 202.677C104.319 202.684 104.6 202.726 104.905 202.8L108.542 203.69ZM104.721 203.554C104.353 203.464 104.066 203.46 103.86 203.541C103.652 203.628 103.513 203.813 103.443 204.098C103.375 204.378 103.413 204.604 103.557 204.777C103.701 204.955 103.956 205.088 104.324 205.178L107.067 205.849L107.464 204.225L104.721 203.554Z" fill="white"/>
<path d="M95.6196 203.239L94.8427 205.459L93.9668 205.152L95.7954 199.927L96.6713 200.234L95.8997 202.438L99.9244 203.847L100.696 201.642L101.572 201.948L99.7433 207.174L98.8674 206.867L99.6443 204.647L95.6196 203.239Z" fill="white"/>
<path d="M87.0479 202.137L87.3895 201.379L91.1753 203.084L91.8061 201.683L88.3485 200.126L88.6869 199.375L92.1444 200.932L92.7653 199.553L88.9795 197.848L89.3211 197.09L93.9458 199.172L91.6725 204.22L87.0479 202.137Z" fill="white"/>
<path d="M81.1213 198.934L81.5223 198.205L85.1602 200.206L85.9005 198.86L82.578 197.032L82.9751 196.31L86.2977 198.138L87.0264 196.813L83.3884 194.812L83.7894 194.083L88.2335 196.528L85.5654 201.378L81.1213 198.934Z" fill="white"/>
<path d="M67.456 188.887L68.057 185.186L64.3962 185.998L63.6226 185.268L68.6517 184.218C68.9031 184.169 69.1418 184.138 69.3677 184.124C69.5898 184.106 69.8014 184.115 70.0024 184.151C70.2033 184.186 70.3977 184.253 70.5853 184.349C70.7691 184.442 70.9521 184.574 71.1343 184.746L71.3496 184.95L70.7564 185.578L70.5528 185.386C70.4404 185.279 70.3284 185.192 70.2171 185.124C70.1057 185.055 69.9891 185.004 69.8674 184.97C69.742 184.939 69.604 184.926 69.4532 184.93C69.2985 184.931 69.1255 184.951 68.9343 184.991L68.2238 189.612L67.456 188.887Z" fill="white"/>
<path d="M65.8875 181.344L65.0539 180.951C65.2131 180.673 65.2511 180.4 65.1679 180.131C65.0808 179.865 64.9235 179.605 64.6961 179.351L63.8537 178.408C63.5836 178.106 63.3277 177.92 63.0862 177.85C62.8446 177.779 62.6164 177.84 62.4017 178.032C62.3102 178.114 62.2427 178.206 62.1992 178.31C62.1521 178.409 62.1364 178.52 62.1523 178.641C62.1606 178.763 62.2059 178.897 62.2882 179.046C62.363 179.193 62.4786 179.355 62.635 179.53L63.7653 180.794L63.2165 181.285L62.0916 180.026C61.8073 179.708 61.5508 179.533 61.3222 179.501C61.0896 179.473 60.8858 179.537 60.7108 179.694C60.4921 179.889 60.4004 180.111 60.4356 180.358C60.4669 180.609 60.6069 180.874 60.8557 181.152L61.698 182.095C61.9113 182.333 62.1434 182.505 62.3944 182.61C62.6378 182.714 62.9066 182.703 63.2008 182.576L63.4976 183.448C63.0684 183.624 62.6506 183.632 62.244 183.474C61.8374 183.315 61.4546 183.035 61.0956 182.633L60.2639 181.703C59.809 181.194 59.5618 180.717 59.5225 180.273C59.4757 179.828 59.6332 179.444 59.995 179.121C60.2456 178.897 60.5074 178.774 60.7806 178.751C61.0539 178.729 61.3473 178.817 61.661 179.016C61.4664 178.646 61.396 178.319 61.4497 178.035C61.4998 177.747 61.6521 177.49 61.9066 177.262C62.2645 176.942 62.6635 176.832 63.1036 176.933C63.5397 177.036 63.9923 177.351 64.4615 177.876L65.2985 178.812C65.6717 179.23 65.9198 179.655 66.0428 180.089C66.1622 180.519 66.1105 180.937 65.8875 181.344Z" fill="white"/>
<path d="M56.6727 173.312L54.7881 174.719L54.2329 173.976L58.6689 170.664L59.2241 171.407L57.3522 172.805L59.9032 176.222L61.7751 174.824L62.3302 175.568L57.8942 178.88L57.3391 178.136L59.2237 176.729L56.6727 173.312Z" fill="white"/>
<path d="M54.2093 163.507L54.7248 164.354L53.9804 165.593L55.8511 168.669L57.2939 168.578L57.8094 169.426L51.529 169.753L51.0343 168.94L54.2093 163.507ZM52.0314 168.886L54.9708 168.746L53.5116 166.347L52.0314 168.886Z" fill="white"/>
<path d="M46.5931 160.559L47.3744 160.172L48.4329 162.308L52.612 160.238L53.024 161.069L48.8449 163.14L49.9069 165.283L49.1256 165.67L46.5931 160.559Z" fill="white"/>
<path d="M45.6474 158.353L47.8066 157.504L46.7736 154.876C46.6585 154.583 46.5824 154.309 46.5453 154.054C46.5032 153.801 46.5105 153.572 46.5672 153.366C46.622 153.156 46.7271 152.971 46.8825 152.813C47.036 152.649 47.2518 152.513 47.5297 152.404C47.8027 152.296 48.0536 152.249 48.2823 152.263C48.5041 152.273 48.7067 152.336 48.8902 152.453C49.0718 152.565 49.2357 152.727 49.382 152.939C49.5234 153.153 49.6516 153.406 49.7667 153.699L51.1362 157.184L45.9839 159.209L45.6474 158.353ZM49.0445 153.983C48.9059 153.631 48.744 153.393 48.5585 153.271C48.3681 153.151 48.1364 153.145 47.8634 153.252C47.5903 153.36 47.4274 153.521 47.3747 153.737C47.3169 153.954 47.3573 154.239 47.4958 154.592L48.5288 157.22L50.0775 156.611L49.0445 153.983Z" fill="white"/>
<path d="M42.384 149.324L40.8832 143.432L46.2479 142.066L46.477 142.965L41.934 144.122L42.9767 148.216L47.5196 147.059L47.7487 147.958L42.384 149.324Z" fill="white"/>
<path d="M39.7105 137.124C39.6432 136.67 39.6489 136.254 39.7275 135.876C39.8054 135.492 39.9499 135.158 40.1611 134.874C40.3662 134.584 40.6304 134.348 40.9538 134.166C41.2771 133.983 41.6525 133.86 42.0798 133.796L42.0877 133.795C42.515 133.732 42.9126 133.74 43.2803 133.82C43.6481 133.901 43.9721 134.049 44.2523 134.267C44.5318 134.479 44.7645 134.757 44.9504 135.101C45.1355 135.44 45.2617 135.837 45.329 136.291L45.5063 137.485C45.5736 137.939 45.5679 138.355 45.4892 138.733C45.4106 139.112 45.2687 139.446 45.0636 139.735C44.8577 140.019 44.5904 140.252 44.2618 140.436C43.9332 140.62 43.5552 140.743 43.1279 140.806L43.12 140.808C42.6927 140.871 42.2978 140.862 41.9353 140.781C41.5728 140.7 41.2518 140.554 40.9724 140.342C40.6868 140.125 40.4515 139.847 40.2664 139.508C40.0813 139.169 39.9551 138.773 39.8878 138.319L39.7105 137.124ZM44.4902 136.415C44.3955 135.777 44.1456 135.31 43.7404 135.014C43.3353 134.718 42.8294 134.615 42.2227 134.705L42.2148 134.706C41.9141 134.751 41.6491 134.836 41.4197 134.962C41.1903 135.088 41.0037 135.247 40.86 135.441C40.7162 135.635 40.6183 135.865 40.5661 136.132C40.508 136.394 40.5024 136.683 40.5493 137L40.7266 138.195C40.7736 138.511 40.8629 138.786 40.9947 139.02C41.1211 139.255 41.2813 139.444 41.4752 139.588C41.669 139.732 41.8939 139.83 42.1499 139.884C42.4059 139.938 42.6843 139.942 42.985 139.898L42.9929 139.896C43.2936 139.852 43.5613 139.766 43.7959 139.64C44.0253 139.514 44.2119 139.354 44.3556 139.16C44.4994 138.967 44.6004 138.739 44.6586 138.477C44.7115 138.215 44.7144 137.926 44.6675 137.61L44.4902 136.415Z" fill="white"/>
<path d="M45.9225 132.476L43.877 132.577L43.8381 131.786C43.5546 131.559 43.1145 131.405 42.5177 131.322C41.9156 131.239 41.158 131.199 40.245 131.201L39.1164 131.217L38.8747 126.303L43.557 126.072L43.5122 125.162L45.5578 125.061L45.6034 125.988L44.4048 126.047L44.678 131.6L45.8765 131.541L45.9225 132.476ZM43.8457 130.8L43.6586 126.997L39.7113 127.191L39.8634 130.283L40.1994 130.275C40.5838 130.272 40.9552 130.277 41.3136 130.292C41.6668 130.306 42.0018 130.333 42.3187 130.371C42.63 130.403 42.9156 130.456 43.1755 130.529C43.4351 130.596 43.6585 130.686 43.8457 130.8Z" fill="white"/>
<path d="M39.021 120.372C39.0558 119.604 39.2602 119.042 39.6341 118.686C40.0027 118.329 40.4987 118.164 41.1221 118.193L41.13 118.193C41.7587 118.222 42.2431 118.431 42.5831 118.82C42.9178 119.209 43.0677 119.787 43.0328 120.554L42.9195 123.047L44.4379 123.116L44.3962 124.035L38.8659 123.784L39.021 120.372ZM42.0644 123.008L42.1777 120.515C42.2189 119.609 41.8558 119.139 41.0886 119.104L41.0806 119.104C40.3188 119.069 39.9172 119.505 39.8761 120.41L39.7628 122.904L42.0644 123.008Z" fill="white"/>
<path d="M39.7474 112.307C39.8115 111.852 39.935 111.455 40.1178 111.115C40.3013 110.769 40.5347 110.49 40.818 110.277C41.0968 110.057 41.4171 109.906 41.779 109.823C42.1409 109.739 42.5358 109.728 42.9635 109.788L42.9714 109.789C43.3992 109.85 43.778 109.97 44.1079 110.152C44.4377 110.333 44.7062 110.568 44.9133 110.855C45.1211 111.138 45.2653 111.471 45.3458 111.854C45.4271 112.231 45.4356 112.647 45.3714 113.102L45.2024 114.298C45.1382 114.752 45.0147 115.149 44.8319 115.49C44.6491 115.83 44.4184 116.11 44.1396 116.329C43.8616 116.543 43.539 116.691 43.1718 116.774C42.8046 116.857 42.4072 116.868 41.9794 116.807L41.9715 116.806C41.5438 116.746 41.1676 116.625 40.843 116.445C40.5184 116.264 40.2522 116.033 40.0443 115.75C39.832 115.462 39.6852 115.128 39.6039 114.751C39.5226 114.373 39.5141 113.957 39.5783 113.503L39.7474 112.307ZM44.5318 112.983C44.6221 112.344 44.515 111.825 44.2104 111.427C43.9059 111.028 43.45 110.786 42.8427 110.7L42.8347 110.699C42.5337 110.656 42.2554 110.663 41.9998 110.718C41.7442 110.774 41.52 110.874 41.3271 111.019C41.1342 111.164 40.975 111.357 40.8494 111.598C40.7193 111.833 40.6318 112.108 40.587 112.425L40.4179 113.621C40.3732 113.938 40.3807 114.228 40.4407 114.489C40.4954 114.75 40.5953 114.977 40.7404 115.17C40.8855 115.363 41.0732 115.521 41.3034 115.645C41.5336 115.769 41.7993 115.853 42.1003 115.895L42.1082 115.896C42.4092 115.939 42.6901 115.933 42.951 115.878C43.2066 115.823 43.4309 115.722 43.6238 115.577C43.8166 115.432 43.9781 115.242 44.1083 115.008C44.2331 114.772 44.3179 114.496 44.3627 114.179L44.5318 112.983Z" fill="white"/>
<path d="M45.9849 108.856L40.6026 107.561L41.8492 102.381L42.627 102.568L41.5956 106.854L43.1279 107.222L43.7886 104.477C43.8622 104.171 43.9569 103.903 44.0726 103.673C44.1831 103.442 44.3179 103.257 44.4771 103.12C44.6376 102.978 44.8243 102.886 45.0374 102.844C45.2517 102.796 45.4963 102.806 45.7711 102.872C46.0563 102.941 46.2888 103.046 46.4685 103.188C46.6443 103.324 46.7739 103.492 46.8572 103.693C46.9417 103.889 46.9831 104.115 46.9815 104.373C46.9747 104.629 46.9345 104.91 46.8609 105.216L45.9849 108.856ZM46.1064 105.035C46.195 104.666 46.1983 104.379 46.1163 104.173C46.0291 103.965 45.8429 103.827 45.5577 103.759C45.2777 103.691 45.0517 103.73 44.8796 103.875C44.7024 104.019 44.5694 104.275 44.4808 104.643L43.8201 107.389L45.4457 107.78L46.1064 105.035Z" fill="white"/>
<path d="M46.3991 95.897L44.1763 95.1285L44.4795 94.2514L49.7116 96.0604L49.4083 96.9375L47.2006 96.1741L45.8072 100.204L48.015 100.967L47.7117 101.844L42.4796 100.035L42.7829 99.1584L45.0058 99.9269L46.3991 95.897Z" fill="white"/>
<path d="M47.4895 87.3013L48.2481 87.6429L46.5432 91.4287L47.9437 92.0595L49.5008 88.6019L50.2521 88.9403L48.695 92.3978L50.0737 93.0187L51.7786 89.2329L52.5372 89.5745L50.4545 94.1992L45.4068 91.9259L47.4895 87.3013Z" fill="white"/>
<path d="M50.5649 81.5435L51.2954 81.9418L49.3082 85.5873L50.6568 86.3225L52.4717 82.993L53.1952 83.3874L51.3803 86.7168L52.7079 87.4405L54.6951 83.7949L55.4256 84.1931L52.9981 88.6465L48.1374 85.9969L50.5649 81.5435Z" fill="white"/>
<path d="M60.4722 67.8783L64.1759 68.4651L63.3492 64.8075L64.0766 64.031L65.146 69.0561C65.1957 69.3073 65.228 69.5458 65.2429 69.7717C65.2615 69.9937 65.2533 70.2053 65.2183 70.4064C65.1834 70.6075 65.118 70.8021 65.0223 70.9901C64.9302 71.1742 64.7984 71.3578 64.627 71.5407L64.4247 71.7567L63.7942 71.166L63.9856 70.9617C64.0913 70.8488 64.1782 70.7365 64.2463 70.6249C64.3143 70.5132 64.3652 70.3965 64.399 70.2747C64.4289 70.1492 64.4414 70.011 64.4364 69.8603C64.4352 69.7056 64.4144 69.5327 64.3743 69.3416L59.7502 68.649L60.4722 67.8783Z" fill="white"/>
<path d="M68.0861 66.1859L68.4752 65.3509C68.754 65.509 69.0277 65.5459 69.2965 65.4617C69.5616 65.3736 69.821 65.2153 70.0746 64.9869L71.0138 64.1409C71.315 63.8696 71.5002 63.6131 71.5694 63.3712C71.6387 63.1294 71.577 62.9015 71.3842 62.6875C71.3021 62.5963 71.2093 62.5292 71.1058 62.486C71.0063 62.4393 70.8957 62.4241 70.774 62.4404C70.6527 62.4491 70.5182 62.495 70.3703 62.5779C70.2229 62.6533 70.062 62.7695 69.8876 62.9266L68.6275 64.0617L68.1349 63.5148L69.3891 62.3851C69.7061 62.0995 69.88 61.8423 69.9109 61.6136C69.9381 61.3809 69.8732 61.1774 69.7162 61.003C69.5198 60.785 69.298 60.6942 69.0506 60.7303C68.7997 60.7626 68.5356 60.9036 68.2582 61.1535L67.319 61.9994C67.0812 62.2136 66.9105 62.4464 66.8067 62.6978C66.7034 62.9416 66.7158 63.2104 66.8439 63.5041L65.9729 63.8041C65.7951 63.3757 65.7849 62.9578 65.9421 62.5507C66.0993 62.1435 66.378 61.7596 66.7782 61.3991L67.7055 60.5638C68.2127 60.1069 68.6883 59.858 69.1323 59.8169C69.5767 59.7684 69.9613 59.9244 70.2861 60.285C70.511 60.5347 70.6352 60.7961 70.6587 61.0692C70.6822 61.3423 70.5951 61.6361 70.3974 61.9506C70.7664 61.7546 71.093 61.6829 71.3773 61.7355C71.6655 61.7845 71.9238 61.9358 72.1523 62.1894C72.4735 62.5461 72.5849 62.9446 72.4864 63.3851C72.3843 63.8216 72.0717 64.2755 71.5486 64.7466L70.6154 65.5872C70.1993 65.962 69.7747 66.2118 69.3414 66.3364C68.9121 66.4575 68.4937 66.4074 68.0861 66.1859Z" fill="white"/>
<path d="M75.9447 57.0313L74.5304 55.152L75.2719 54.594L78.6007 59.0173L77.8593 59.5753L76.4546 57.7088L73.0476 60.2728L74.4523 62.1393L73.7108 62.6973L70.3819 58.274L71.1234 57.716L72.5377 59.5953L75.9447 57.0313Z" fill="white"/>
<path d="M85.9845 54.3658L85.137 54.8813L83.8977 54.1369L80.8219 56.0077L80.913 57.4505L80.0654 57.966L79.7381 51.6855L80.5514 51.1908L85.9845 54.3658ZM80.6055 52.1879L80.7453 55.1273L83.1444 53.6681L80.6055 52.1879Z" fill="white"/>
<path d="M88.7194 46.8166L89.1095 47.5964L86.9774 48.6629L89.0637 52.8342L88.2337 53.2493L86.1474 49.078L84.008 50.148L83.618 49.3681L88.7194 46.8166Z" fill="white"/>
<path d="M91.0476 45.796L91.9043 47.952L94.5287 46.9093C94.8211 46.7931 95.0947 46.716 95.3493 46.6779C95.6019 46.6349 95.8312 46.6414 96.0371 46.6974C96.2479 46.7513 96.4328 46.8557 96.5919 47.0106C96.756 47.1635 96.8932 47.3787 97.0034 47.6563C97.1117 47.9289 97.1597 48.1796 97.1473 48.4083C97.1379 48.6301 97.075 48.833 96.9587 49.017C96.8474 49.1989 96.686 49.3635 96.4747 49.5105C96.2615 49.6527 96.0086 49.7818 95.7162 49.898L92.2368 51.2805L90.1926 46.1357L91.0476 45.796ZM95.4297 49.1768C95.7816 49.037 96.0182 48.8742 96.1394 48.6882C96.2587 48.4974 96.2642 48.2656 96.1559 47.993C96.0476 47.7204 95.8855 47.5581 95.6697 47.5061C95.452 47.4492 95.1672 47.4906 94.8153 47.6304L92.1908 48.6732L92.8052 50.2196L95.4297 49.1768Z" fill="white"/>
<path d="M100.14 42.4601L106.032 40.9593L107.398 46.324L106.499 46.5531L105.342 42.0102L101.248 43.0528L102.405 47.5957L101.506 47.8248L100.14 42.4601Z" fill="white"/>
<path d="M112.072 39.7969C112.525 39.728 112.941 39.7321 113.32 39.8094C113.704 39.8859 114.038 40.0292 114.324 40.2393C114.614 40.4434 114.851 40.7068 115.035 41.0294C115.219 41.3521 115.343 41.727 115.408 42.1541L115.409 42.162C115.474 42.5891 115.467 42.9867 115.388 43.3547C115.309 43.7228 115.162 44.0473 114.946 44.3283C114.735 44.6086 114.457 44.8422 114.114 45.0294C113.775 45.2157 113.379 45.3434 112.926 45.4124L111.731 45.594C111.278 45.6629 110.862 45.6588 110.483 45.5815C110.105 45.5042 109.771 45.3635 109.481 45.1595C109.196 44.9546 108.961 44.6882 108.776 44.3603C108.592 44.0323 108.467 43.6548 108.402 43.2277L108.401 43.2198C108.336 42.7927 108.343 42.3978 108.423 42.035C108.502 41.6722 108.648 41.3507 108.859 41.0705C109.074 40.7842 109.351 40.5478 109.69 40.3615C110.028 40.1752 110.424 40.0475 110.877 39.9785L112.072 39.7969ZM112.798 44.574C113.436 44.477 113.902 44.2254 114.197 43.8192C114.491 43.413 114.592 42.9067 114.5 42.3003L114.499 42.2924C114.453 41.9919 114.367 41.7271 114.24 41.4982C114.114 41.2693 113.953 41.0833 113.759 40.9403C113.564 40.7972 113.334 40.7001 113.067 40.6489C112.805 40.5917 112.516 40.5872 112.199 40.6353L111.005 40.8169C110.689 40.865 110.414 40.9554 110.18 41.088C109.946 41.2153 109.758 41.3761 109.614 41.5705C109.471 41.7649 109.373 41.9902 109.321 42.2464C109.268 42.5026 109.264 42.7809 109.31 43.0815L109.311 43.0894C109.357 43.3899 109.444 43.6573 109.571 43.8915C109.697 44.1204 109.858 44.3064 110.052 44.4494C110.247 44.5925 110.475 44.6926 110.737 44.7499C110.999 44.8018 111.288 44.8037 111.604 44.7556L112.798 44.574Z" fill="white"/>
<path d="M117.027 45.9403L116.926 43.8948L117.717 43.8558C117.943 43.5724 118.098 43.1323 118.181 42.5355C118.263 41.9333 118.304 41.1758 118.301 40.2628L118.286 39.1342L123.2 38.8925L123.43 43.5748L124.341 43.53L124.442 45.5755L123.515 45.6211L123.456 44.4226L117.903 44.6957L117.962 45.8943L117.027 45.9403ZM118.703 43.8634L122.506 43.6763L122.312 39.7291L119.22 39.8812L119.228 40.2172C119.231 40.6015 119.225 40.9729 119.211 41.3314C119.196 41.6845 119.17 42.0196 119.132 42.3365C119.099 42.6478 119.047 42.9334 118.974 43.1933C118.907 43.4529 118.816 43.6763 118.703 43.8634Z" fill="white"/>
<path d="M129.163 39.018C129.931 39.0529 130.493 39.2572 130.849 39.6312C131.206 39.9997 131.371 40.4957 131.342 41.1191L131.342 41.1271C131.313 41.7558 131.105 42.2401 130.715 42.5801C130.326 42.9148 129.748 43.0647 128.981 43.0298L126.488 42.9165L126.419 44.435L125.5 44.3932L125.751 38.8629L129.163 39.018ZM126.527 42.0614L129.02 42.1747C129.926 42.2159 130.396 41.8529 130.431 41.0857L130.431 41.0777C130.466 40.3158 130.03 39.9143 129.125 39.8731L126.631 39.7598L126.527 42.0614Z" fill="white"/>
<path d="M137.286 39.7331C137.74 39.7973 138.137 39.9207 138.478 40.1035C138.824 40.287 139.103 40.5204 139.316 40.8037C139.535 41.0825 139.687 41.4028 139.77 41.7647C139.854 42.1266 139.865 42.5215 139.805 42.9492L139.804 42.9571C139.743 43.3849 139.622 43.7637 139.441 44.0936C139.26 44.4234 139.025 44.6919 138.737 44.899C138.455 45.1069 138.122 45.251 137.739 45.3316C137.361 45.4128 136.945 45.4214 136.491 45.3572L135.295 45.1881C134.841 45.1239 134.444 45.0004 134.103 44.8176C133.763 44.6349 133.483 44.4041 133.264 44.1253C133.05 43.8473 132.902 43.5247 132.819 43.1576C132.736 42.7904 132.725 42.3929 132.785 41.9651L132.786 41.9572C132.847 41.5295 132.967 41.1533 133.148 40.8287C133.329 40.5041 133.56 40.2379 133.843 40.0301C134.131 39.8177 134.464 39.6709 134.842 39.5896C135.22 39.5083 135.636 39.4998 136.09 39.564L137.286 39.7331ZM136.61 44.5175C137.249 44.6078 137.768 44.5007 138.166 44.1962C138.565 43.8916 138.807 43.4357 138.893 42.8284L138.894 42.8205C138.936 42.5195 138.93 42.2411 138.874 41.9855C138.819 41.7299 138.719 41.5057 138.574 41.3128C138.429 41.1199 138.236 40.9607 137.995 40.8351C137.76 40.705 137.484 40.6175 137.167 40.5727L135.971 40.4036C135.654 40.3589 135.365 40.3665 135.104 40.4264C134.843 40.4811 134.616 40.581 134.423 40.7261C134.23 40.8712 134.072 41.0589 133.947 41.2891C133.823 41.5193 133.74 41.785 133.697 42.086L133.696 42.0939C133.654 42.3949 133.66 42.6759 133.715 42.9367C133.77 43.1923 133.87 43.4166 134.015 43.6095C134.16 43.8023 134.35 43.9638 134.585 44.094C134.821 44.2188 135.097 44.3037 135.414 44.3484L136.61 44.5175Z" fill="white"/>
<path d="M140.279 45.8587L141.554 40.4716L146.739 41.699L146.554 42.4775L142.265 41.462L141.902 42.9956L144.65 43.6462C144.956 43.7187 145.224 43.8123 145.455 43.9272C145.687 44.0368 145.871 44.171 146.009 44.3297C146.152 44.4896 146.245 44.676 146.288 44.8889C146.336 45.103 146.327 45.3476 146.262 45.6227C146.194 45.9081 146.09 46.141 145.949 46.3213C145.814 46.4976 145.646 46.6278 145.445 46.7118C145.25 46.7971 145.023 46.8393 144.766 46.8387C144.509 46.8328 144.228 46.7937 143.922 46.7212L140.279 45.8587ZM144.101 45.966C144.469 46.0533 144.756 46.0555 144.962 45.9727C145.17 45.8848 145.307 45.698 145.375 45.4126C145.441 45.1323 145.401 44.9065 145.255 44.7349C145.111 44.5582 144.854 44.4263 144.486 44.339L141.738 43.6884L141.353 45.3155L144.101 45.966Z" fill="white"/>
<path d="M153.381 46.2403L154.141 44.0146L155.019 44.3146L153.23 49.5534L152.352 49.2534L153.107 47.0428L149.072 45.6645L148.317 47.8751L147.438 47.5752L149.228 42.3364L150.106 42.6363L149.346 44.8621L153.381 46.2403Z" fill="white"/>
<path d="M162.002 47.2905L161.663 48.0504L157.871 46.3598L157.245 47.7627L160.709 49.3067L160.373 50.0593L156.91 48.5153L156.294 49.8963L160.086 51.5869L159.748 52.3468L155.115 50.2816L157.369 45.2253L162.002 47.2905Z" fill="white"/>
<path d="M168.077 50.5071L167.678 51.2376L164.033 49.2504L163.298 50.5991L166.627 52.414L166.233 53.1374L162.903 51.3225L162.18 52.6501L165.825 54.6373L165.427 55.3678L160.974 52.9403L163.623 48.0796L168.077 50.5071Z" fill="white"/>
<path d="M181.816 60.4379L181.23 64.1416L184.887 63.3149L185.664 64.0424L180.639 65.1117C180.388 65.1614 180.149 65.1937 179.923 65.2086C179.701 65.2272 179.489 65.219 179.288 65.184C179.087 65.1491 178.893 65.0837 178.705 64.988C178.521 64.8959 178.337 64.7641 178.154 64.5928L177.938 64.3904L178.529 63.7599L178.733 63.9513C178.846 64.057 178.958 64.1439 179.07 64.212C179.182 64.28 179.298 64.331 179.42 64.3647C179.546 64.3946 179.684 64.4071 179.835 64.4022C179.989 64.4009 180.162 64.3802 180.353 64.34L181.046 59.7159L181.816 60.4379Z" fill="white"/>
<path d="M183.174 67.6908L184.01 68.0767C183.853 68.3561 183.817 68.63 183.902 68.8984C183.992 69.1632 184.151 69.422 184.38 69.6747L185.23 70.6106C185.502 70.9107 185.76 71.095 186.002 71.1633C186.244 71.2317 186.471 71.169 186.685 70.9755C186.775 70.893 186.842 70.8 186.885 70.6963C186.931 70.5966 186.946 70.486 186.929 70.3643C186.92 70.2431 186.874 70.1087 186.79 69.9612C186.714 69.814 186.598 69.6536 186.44 69.4798L185.3 68.224L185.845 67.7293L186.979 68.9792C187.266 69.2951 187.524 69.468 187.753 69.498C187.986 69.5243 188.189 69.4587 188.363 69.3009C188.58 69.1038 188.67 68.8816 188.633 68.6344C188.6 68.3836 188.458 68.12 188.207 67.8435L187.357 66.9076C187.142 66.6707 186.909 66.5008 186.657 66.398C186.413 66.2956 186.144 66.3091 185.851 66.4383L185.547 65.5685C185.975 65.3891 186.393 65.3772 186.801 65.5328C187.208 65.6885 187.593 65.9657 187.955 66.3645L188.794 67.2886C189.253 67.7941 189.504 68.2687 189.547 68.7125C189.597 69.1567 189.442 69.5419 189.083 69.8681C188.834 70.094 188.573 70.2191 188.3 70.2437C188.027 70.2683 187.733 70.1823 187.418 69.9858C187.615 70.3541 187.688 70.6804 187.637 70.9649C187.589 71.2533 187.438 71.5122 187.186 71.7416C186.83 72.0642 186.432 72.1771 185.991 72.0803C185.554 71.9799 185.099 71.669 184.626 71.1478L183.782 70.2178C183.406 69.8032 183.154 69.3795 183.028 68.9467C182.905 68.5179 182.954 68.0993 183.174 67.6908Z" fill="white"/>
<path d="M192.705 75.9488L194.585 74.5345L195.143 75.276L190.719 78.6048L190.161 77.8634L192.028 76.4587L189.464 73.0517L187.597 74.4564L187.039 73.7149L191.463 70.386L192.021 71.1275L190.141 72.5418L192.705 75.9488Z" fill="white"/>
<path d="M195.171 85.6359L194.652 84.7903L195.392 83.5482L193.509 80.4796L192.067 80.576L191.548 79.7305L197.827 79.3794L198.325 80.1909L195.171 85.6359ZM197.328 80.2487L194.39 80.3996L195.858 82.7932L197.328 80.2487Z" fill="white"/>
<path d="M202.708 88.2787L201.93 88.6717L200.855 86.5435L196.692 88.6455L196.273 87.817L200.437 85.7151L199.359 83.5798L200.137 83.1868L202.708 88.2787Z" fill="white"/>
<path d="M203.78 90.6692L201.627 91.5338L202.68 94.1543C202.797 94.4463 202.875 94.7196 202.914 94.974C202.958 95.2265 202.952 95.4558 202.897 95.6619C202.844 95.8729 202.74 96.0583 202.586 96.2179C202.434 96.3825 202.219 96.5205 201.942 96.6318C201.67 96.7411 201.419 96.79 201.19 96.7784C200.968 96.7698 200.765 96.7077 200.581 96.5921C200.399 96.4814 200.233 96.3207 200.086 96.11C199.943 95.8973 199.813 95.6449 199.695 95.3529L198.3 91.8786L203.437 89.8154L203.78 90.6692ZM200.415 95.0637C200.557 95.4151 200.72 95.6511 200.907 95.7716C201.098 95.8902 201.33 95.8948 201.602 95.7855C201.874 95.6762 202.036 95.5135 202.087 95.2976C202.143 95.0796 202.101 94.7949 201.96 94.4435L200.907 91.823L199.363 92.4431L200.415 95.0637Z" fill="white"/>
<path d="M207.169 99.7722L208.691 105.659L203.332 107.045L203.099 106.146L207.638 104.972L206.58 100.883L202.042 102.057L201.809 101.158L207.169 99.7722Z" fill="white"/>
<path d="M209.882 111.691C209.953 112.144 209.95 112.56 209.874 112.939C209.799 113.323 209.657 113.658 209.448 113.944C209.245 114.235 208.982 114.473 208.66 114.658C208.338 114.843 207.964 114.969 207.537 115.035L207.529 115.037C207.102 115.103 206.705 115.098 206.336 115.02C205.968 114.943 205.643 114.796 205.361 114.581C205.08 114.371 204.846 114.095 204.657 113.751C204.47 113.414 204.34 113.018 204.27 112.565L204.084 111.371C204.013 110.918 204.016 110.502 204.092 110.123C204.168 109.744 204.307 109.41 204.51 109.119C204.714 108.833 204.98 108.598 205.307 108.412C205.634 108.226 206.011 108.1 206.438 108.033L206.446 108.032C206.873 107.965 207.268 107.971 207.631 108.05C207.994 108.128 208.316 108.272 208.597 108.482C208.884 108.697 209.121 108.973 209.309 109.31C209.496 109.648 209.626 110.044 209.696 110.497L209.882 111.691ZM205.108 112.434C205.207 113.072 205.46 113.537 205.868 113.83C206.275 114.123 206.782 114.222 207.388 114.128L207.395 114.126C207.696 114.08 207.96 113.993 208.189 113.865C208.417 113.738 208.603 113.577 208.745 113.382C208.887 113.187 208.984 112.956 209.034 112.689C209.09 112.427 209.094 112.137 209.044 111.821L208.858 110.627C208.809 110.311 208.718 110.037 208.584 109.804C208.456 109.57 208.295 109.382 208.1 109.24C207.905 109.097 207.679 109 207.423 108.948C207.166 108.897 206.888 108.894 206.588 108.941L206.58 108.942C206.279 108.989 206.012 109.076 205.779 109.205C205.55 109.332 205.365 109.493 205.222 109.688C205.08 109.883 204.981 110.112 204.924 110.374C204.873 110.636 204.873 110.925 204.922 111.241L205.108 112.434Z" fill="white"/>
<path d="M203.767 116.698L205.812 116.59L205.854 117.381C206.138 117.606 206.579 117.759 207.176 117.84C207.778 117.92 208.536 117.957 209.449 117.952L210.577 117.932L210.837 122.845L206.155 123.093L206.204 124.003L204.158 124.111L204.109 123.185L205.308 123.121L205.014 117.569L203.816 117.633L203.767 116.698ZM205.85 118.366L206.051 122.169L209.997 121.96L209.834 118.869L209.498 118.878C209.113 118.883 208.742 118.878 208.383 118.865C208.03 118.852 207.695 118.827 207.378 118.79C207.067 118.759 206.781 118.707 206.521 118.635C206.261 118.569 206.037 118.479 205.85 118.366Z" fill="white"/>
<path d="M210.737 128.819C210.705 129.586 210.503 130.149 210.13 130.507C209.763 130.865 209.268 131.031 208.644 131.005L208.636 131.005C208.007 130.979 207.522 130.772 207.181 130.384C206.845 129.996 206.693 129.418 206.725 128.651L206.829 126.157L205.31 126.094L205.349 125.175L210.88 125.406L210.737 128.819ZM207.684 126.193L207.58 128.687C207.542 129.593 207.907 130.062 208.674 130.094L208.682 130.094C209.444 130.126 209.844 129.689 209.882 128.783L209.986 126.289L207.684 126.193Z" fill="white"/>
<path d="M210.055 136.946C209.992 137.4 209.87 137.798 209.689 138.139C209.507 138.485 209.274 138.766 208.992 138.98C208.714 139.2 208.394 139.352 208.032 139.437C207.671 139.522 207.276 139.535 206.848 139.476L206.84 139.475C206.412 139.416 206.033 139.297 205.702 139.117C205.372 138.936 205.102 138.703 204.894 138.416C204.685 138.134 204.54 137.802 204.458 137.419C204.375 137.042 204.365 136.626 204.428 136.171L204.593 134.975C204.655 134.52 204.777 134.122 204.959 133.781C205.14 133.44 205.37 133.16 205.648 132.939C205.925 132.725 206.247 132.575 206.614 132.491C206.981 132.407 207.378 132.394 207.806 132.453L207.814 132.454C208.242 132.513 208.619 132.632 208.944 132.812C209.269 132.991 209.536 133.222 209.745 133.503C209.959 133.791 210.107 134.124 210.189 134.501C210.272 134.879 210.282 135.295 210.22 135.749L210.055 136.946ZM205.268 136.287C205.18 136.926 205.289 137.445 205.595 137.842C205.901 138.239 206.358 138.48 206.965 138.564L206.973 138.565C207.275 138.606 207.553 138.599 207.808 138.542C208.064 138.486 208.288 138.385 208.48 138.239C208.672 138.093 208.831 137.9 208.955 137.658C209.085 137.423 209.171 137.147 209.215 136.83L209.379 135.633C209.423 135.316 209.414 135.027 209.354 134.766C209.298 134.505 209.197 134.278 209.051 134.086C208.906 133.894 208.717 133.736 208.487 133.613C208.256 133.489 207.99 133.407 207.689 133.366L207.681 133.365C207.38 133.323 207.099 133.33 206.838 133.386C206.583 133.442 206.359 133.543 206.167 133.689C205.974 133.835 205.813 134.025 205.684 134.261C205.56 134.497 205.476 134.773 205.433 135.09L205.268 136.287Z" fill="white"/>
<path d="M203.829 140.499L209.216 141.774L207.988 146.959L207.21 146.775L208.225 142.485L206.692 142.122L206.041 144.87C205.969 145.176 205.875 145.445 205.76 145.675C205.65 145.907 205.516 146.092 205.358 146.229C205.198 146.372 205.011 146.465 204.798 146.508C204.584 146.556 204.34 146.547 204.064 146.482C203.779 146.415 203.546 146.31 203.366 146.169C203.19 146.034 203.059 145.866 202.975 145.665C202.89 145.47 202.848 145.243 202.849 144.986C202.854 144.73 202.894 144.448 202.966 144.142L203.829 140.499ZM203.721 144.321C203.634 144.69 203.632 144.977 203.714 145.183C203.802 145.39 203.989 145.527 204.275 145.595C204.555 145.661 204.781 145.621 204.952 145.476C205.129 145.331 205.261 145.075 205.348 144.706L205.999 141.958L204.372 141.573L203.721 144.321Z" fill="white"/>
<path d="M203.585 153.15L205.813 153.902L205.517 154.781L200.271 153.011L200.568 152.132L202.781 152.879L204.145 148.839L201.931 148.092L202.228 147.213L207.473 148.982L207.177 149.862L204.948 149.11L203.585 153.15Z" fill="white"/>
<path d="M202.557 161.784L201.796 161.448L203.472 157.65L202.067 157.03L200.536 160.499L199.782 160.166L201.313 156.697L199.93 156.086L198.254 159.885L197.493 159.549L199.54 154.909L204.605 157.144L202.557 161.784Z" fill="white"/>
<path d="M199.378 167.832L198.646 167.437L200.619 163.784L199.267 163.054L197.465 166.39L196.74 165.999L198.542 162.662L197.212 161.944L195.239 165.597L194.507 165.201L196.917 160.739L201.788 163.37L199.378 167.832Z" fill="white"/>
</svg>
