<svg width="29" height="15" viewBox="0 0 29 15" fill="none" xmlns="http://www.w3.org/2000/svg">
<path fill-rule="evenodd" clip-rule="evenodd" d="M25.8131 10.5147C25.8131 10.5147 28.1577 12.6098 28.7377 13.5792C28.749 13.5932 28.7578 13.6087 28.7638 13.6252C29.0002 13.9833 29.0582 14.264 28.9422 14.4713C28.7464 14.8137 28.0838 14.9856 27.859 15H23.7149C23.4264 15 22.8261 14.9318 22.0953 14.4753C21.537 14.1224 20.9817 13.5412 20.4437 12.9732C19.6404 12.1296 18.9459 11.3976 18.2426 11.3976C18.1538 11.3974 18.0656 11.4107 17.9816 11.4369C17.4494 11.5891 16.7737 12.2752 16.7737 14.1027C16.7737 14.6747 16.2749 15 15.9255 15H14.0274C13.3807 15 10.0138 14.7953 7.02829 11.9473C3.36993 8.46029 0.0842307 1.46537 0.0523306 1.40371C-0.15212 0.951111 0.277081 0.704478 0.741081 0.704478H4.92579C5.48694 0.704478 5.66964 1.01146 5.79724 1.28695C5.94514 1.60311 6.49324 2.86776 7.39224 4.28853C8.84804 6.60005 9.74269 7.54067 10.4575 7.54067C10.5918 7.54103 10.7239 7.50935 10.8403 7.44884C11.7741 6.98443 11.6001 3.96712 11.5566 3.34529C11.5566 3.22459 11.5552 1.99799 11.0767 1.40502C10.7345 0.979972 10.1516 0.814675 9.79924 0.754329C9.89349 0.631013 10.0936 0.442102 10.3502 0.330593C10.9897 0.0419799 12.1453 0 13.2923 0H13.9288C15.1729 0.0157425 15.4948 0.0878956 15.9472 0.191534C16.8578 0.388315 16.8752 0.92225 16.7955 2.74051C16.7723 3.26001 16.7476 3.84511 16.7476 4.53385C16.7476 4.68078 16.7404 4.84476 16.7404 5.01137C16.7128 5.94411 16.6766 6.99493 17.4045 7.42654C17.4989 7.47974 17.6079 7.50792 17.7191 7.50787C17.9714 7.50787 18.7269 7.50787 20.7758 4.32657C21.6748 2.92155 22.3708 1.26465 22.4186 1.14002C22.4592 1.07049 22.581 0.875022 22.7289 0.796309C22.8341 0.745664 22.952 0.720365 23.0711 0.722844H27.9939C28.5304 0.722844 28.8943 0.79631 28.9654 0.979972C29.0843 1.27777 28.9422 2.1869 26.6947 4.93659C26.3162 5.39444 25.9842 5.79063 25.6927 6.13696C23.6555 8.55606 23.6555 8.67807 25.8131 10.5147Z" fill="white"/>
</svg>
