<svg width="22" height="16" viewBox="0 0 22 16" fill="none" xmlns="http://www.w3.org/2000/svg">
<path d="M21.5408 2.49936C21.4156 2.01538 21.1701 1.57402 20.8288 1.21945C20.4875 0.864885 20.0625 0.609542 19.5962 0.478981C17.8799 9.71897e-08 11 0 11 0C11 0 4.12009 -9.71897e-08 2.40379 0.476433C1.93733 0.606571 1.51207 0.861772 1.17073 1.21641C0.829388 1.57104 0.58398 2.01263 0.459152 2.49682C-9.36644e-08 4.28025 0 8 0 8C0 8 -9.36644e-08 11.7197 0.459152 13.5006C0.712053 14.4841 1.45848 15.2586 2.40379 15.521C4.12009 16 11 16 11 16C11 16 17.8799 16 19.5962 15.521C20.544 15.2586 21.2879 14.4841 21.5408 13.5006C22 11.7197 22 8 22 8C22 8 22 4.28025 21.5408 2.49936ZM8.81473 11.414V4.58599L14.5112 7.97452L8.81473 11.414Z" fill="#565555"/>
</svg>
