<svg width="148" height="151" viewBox="0 0 148 151" fill="none" xmlns="http://www.w3.org/2000/svg">
<path d="M131.002 60.6961L136.194 57.2433L137.238 51.0713L140.67 56.2948L146.805 57.3319L141.613 60.7847L140.582 66.9567L137.15 61.7332L131.002 60.6961Z" fill="#181818"/>
<path d="M15.8538 60.6961L10.6615 57.2433L9.63057 51.0713L6.19835 56.2948L0.0631175 57.3319L5.25544 60.7847L6.28636 66.9567L9.71857 61.7332L15.8538 60.6961Z" fill="#181818"/>
<path d="M114.495 30.9486L125.596 20.7419L127.658 23.0185L118.443 31.4924L123.572 37.1459L121.686 38.8786L114.495 30.9486Z" fill="#181818"/>
<path d="M93.7885 18.4149L100.163 4.59106L110.359 9.34657L109.277 11.6864L101.86 8.22093L100.452 11.2817L107.354 14.5068L106.273 16.8466L99.3706 13.6215L97.6356 17.3778L105.317 20.9571L104.249 23.2969L93.7885 18.4149Z" fill="#181818"/>
<path d="M107.102 82.5003C106.755 81.0411 106.566 79.5485 106.537 78.0484C106.361 74.6715 102.639 70.308 102.639 70.308C104.11 73.1411 103.532 75.5947 103.896 79.3258C103.218 77.0492 102.74 74.5703 102.048 71.8384C101.618 70.2246 100.849 68.7223 99.793 67.4329C98.7368 66.1435 97.4181 65.0969 95.9257 64.3637C99.3202 68.4235 98.2641 70.6875 98.9933 76.303C98.1305 74.7523 97.4512 73.1054 96.9692 71.3957C96.3657 68.8662 96.3028 66.4379 94.4547 63.6048C93.995 62.7772 93.4605 61.994 92.858 61.265C91.1231 58.9505 88.8978 56.6233 85.7548 56.2692C89.5264 59.8358 88.9607 63.1115 88.6589 65.5019C88.47 66.9895 88.5595 68.4995 88.923 69.9539C85.8931 65.1225 89.5641 60.1014 83.6678 55.3459C82.0138 53.9592 80.0545 52.9902 77.9529 52.5194C75.8514 52.0486 73.6684 52.0897 71.5859 52.6393C77.3565 55.4597 78.6766 59.3173 78.9029 62.0491C79.0983 63.8062 79.6549 65.5032 80.5373 67.0323C80.5373 67.0323 78.84 66.2734 77.0422 61.2397C76.0911 58.4536 74.3834 55.9911 72.1125 54.1313C69.8416 52.2715 67.0983 51.0887 64.1934 50.7169C57.2787 49.6545 53.6831 53.7397 53.6831 53.7397C59.9692 52.0196 64.6083 55.5862 65.941 58.4572C67.2736 61.3282 68.6314 64.3889 68.6314 64.3889C61.2389 52.2978 52.6396 54.0053 47.6861 54.9791C42.7327 55.953 36.9369 59.6587 32.2349 64.3889C27.5329 69.1192 26.2756 72.9008 24.1007 73.1538C23.2583 73.2423 22.9566 73.3814 22.8434 73.5205C23.2995 73.7313 23.7701 73.9088 24.2515 74.0517C25.5066 74.4249 26.8185 74.5663 28.1238 74.4691C29.5678 74.3479 30.9867 74.0156 32.3354 73.4826C33.8151 72.8969 35.2448 72.1905 36.61 71.3704C38.0558 70.5736 39.4513 69.5618 41.0731 68.7524C42.7434 67.9414 44.5156 67.3628 46.3409 67.0323C48.2276 66.6786 50.1421 66.4966 52.0612 66.4885C56.0519 66.513 60.0324 66.8982 63.9545 67.6394C65.9535 67.9935 67.9525 68.4235 69.9515 68.9042C71.967 69.39 73.9526 69.9939 75.8981 70.7128C79.7532 72.1228 83.5303 73.7398 87.2131 75.5568C90.8591 77.3401 94.3919 79.2246 97.7612 81.1091C101.131 82.9936 104.324 84.9034 107.341 86.7879C110.359 88.6724 113.175 90.4557 115.765 92.1378C118.028 93.605 120.102 95.0088 121.963 96.2862C121.817 95.2509 121.443 94.2614 120.869 93.3899C117.963 92.1401 115.195 90.5887 112.609 88.7609C111.73 87.6804 111.087 86.4263 110.721 85.0798C110.355 83.7334 110.275 82.3246 110.484 80.9447C109.84 81.8316 109.3 82.7908 108.875 83.8031C109.156 81.4506 108.929 79.0648 108.209 76.8089C108.28 78.1541 108.083 79.4999 107.63 80.7676C107.415 81.3323 107.239 81.9112 107.102 82.5003Z" fill="#181818"/>
<path d="M44.2039 138.643L46.3915 140.856C45.4215 142.007 44.0916 142.792 42.6198 143.082C40.9844 143.252 39.3408 142.849 37.9665 141.941C36.5922 141.034 35.5714 139.676 35.0765 138.099C34.5872 136.079 34.9127 133.947 35.9817 132.167C36.8609 130.205 38.4599 128.659 40.4448 127.855C41.3498 127.542 42.311 127.429 43.2632 127.523C44.2155 127.617 45.1365 127.915 45.964 128.398C47.4696 129.118 48.6343 130.403 49.2077 131.978C49.4956 133.029 49.4956 134.139 49.2077 135.19L46.1903 134.419C46.4013 133.698 46.3614 132.926 46.0772 132.231C45.7557 131.546 45.2158 130.99 44.5434 130.65C44.0943 130.398 43.5954 130.249 43.0824 130.214C42.5694 130.179 42.0551 130.259 41.5763 130.447C40.3316 131.087 39.3519 132.149 38.8104 133.445C38.023 134.67 37.6728 136.129 37.8172 137.581C37.9222 138.083 38.1398 138.556 38.4535 138.961C38.7672 139.367 39.1688 139.695 39.6276 139.92C40.3063 140.297 41.1013 140.401 41.8529 140.211C42.7841 139.957 43.6088 139.407 44.2039 138.643Z" fill="#181818"/>
<path d="M125.843 104.637L124.281 107.278L137.312 115.077L138.874 112.435L125.843 104.637Z" fill="#181818"/>
<path d="M95.8 147.408L91.8021 135.38L87.5401 136.822L86.7229 134.381L98.1385 130.523L98.9557 132.977L94.7063 134.406L98.7042 146.422L95.8 147.408Z" fill="#181818"/>
<path d="M17.6009 24.7642L19.5999 22.437L26.854 28.7608C27.6194 29.3696 28.2854 30.095 28.8279 30.9109C29.2965 31.6974 29.4912 32.6187 29.381 33.529C29.2133 34.6116 28.7222 35.6174 27.9729 36.4126C27.5907 36.9183 27.1085 37.3389 26.5568 37.648C26.005 37.9571 25.3957 38.148 24.767 38.2086C23.4031 38.1984 22.098 37.6486 21.1337 36.6782L22.7806 34.2625C23.2508 34.6949 23.8147 35.011 24.4276 35.1858C24.7096 35.211 24.9936 35.1736 25.2597 35.0764C25.5258 34.9791 25.7674 34.8243 25.9676 34.623C26.1678 34.4216 26.3217 34.1785 26.4183 33.9108C26.515 33.6431 26.5521 33.3574 26.5271 33.0737C26.1886 32.307 25.6498 31.6471 24.9682 31.1639L17.6009 24.7642Z" fill="#181818"/>
<path d="M127.96 127.425L125.42 129.588L122.177 127.817L117.563 131.776L118.845 135.229L116.368 137.341L111.038 121.873L113.502 119.76L127.96 127.425Z" fill="#181818"/>
<path d="M66.3688 15.5819L62.4966 0.404718L65.627 0.34148L68.0912 10.7758L70.6811 0.265594L74.3144 0.202356L77.1558 10.8011L79.3056 0.113823L82.3858 0.0632324L78.9536 15.3669L75.71 15.4174L72.4915 4.07253L69.6879 15.5313L66.3688 15.5819Z" fill="#181818"/>
<path d="M6.98994 95.4646L6.80136 98.6518C5.3222 98.6967 3.8692 98.2524 2.6651 97.387C1.53883 96.4082 0.783728 95.0677 0.527828 93.5927C0.279513 92.6943 0.222831 91.7532 0.3615 90.8312C0.500169 89.9092 0.831055 89.0271 1.33245 88.2428C2.51914 86.5344 4.32486 85.3627 6.36133 84.9797C8.40516 84.3366 10.617 84.5134 12.5343 85.473C13.3684 85.9435 14.0921 86.5892 14.6561 87.3661C15.2201 88.143 15.6113 89.033 15.8031 89.9755C16.2745 91.5813 16.0937 93.3097 15.3002 94.7816C14.7329 95.7144 13.9247 96.475 12.9617 96.9823L11.5159 94.2251C12.1937 93.9111 12.7376 93.3639 13.0497 92.6821C13.3578 91.9947 13.4157 91.2201 13.2132 90.4941C13.1038 89.9847 12.8821 89.5066 12.5644 89.0951C12.2467 88.6835 11.8411 88.349 11.3776 88.1163C10.0803 87.6067 8.64471 87.5798 7.32939 88.0404C5.88399 88.2592 4.55469 88.9635 3.55773 90.0388C3.25684 90.4568 3.05222 90.9371 2.95871 91.4446C2.86521 91.9521 2.88516 92.4742 3.01712 92.973C3.19775 93.7258 3.64466 94.3867 4.27435 94.8322C5.08922 95.3292 6.04085 95.5509 6.98994 95.4646Z" fill="#181818"/>
<path d="M15.8031 111.211C16.8252 110.355 18.0103 109.718 19.2856 109.339C20.1081 109.139 20.9588 109.083 21.8001 109.175C22.599 109.25 23.3738 109.491 24.0757 109.883C25.0579 110.436 25.9143 111.19 26.5901 112.096C27.2328 112.851 27.7114 113.732 27.995 114.684C28.2787 115.636 28.3611 116.637 28.2371 117.623C28.0517 118.664 27.6642 119.657 27.0968 120.547C26.5295 121.437 25.7934 122.205 24.9306 122.809C24.1503 123.504 23.241 124.038 22.2549 124.379C21.2689 124.719 20.2256 124.861 19.1851 124.794C18.2045 124.677 17.2593 124.354 16.4105 123.846C15.5616 123.339 14.8279 122.658 14.2568 121.847C13.6157 121.098 13.1352 120.224 12.8453 119.28C12.5554 118.335 12.4624 117.341 12.5721 116.358C12.7444 115.328 13.1188 114.342 13.6735 113.458C14.2282 112.574 14.9521 111.81 15.8031 111.211Z" fill="#181818"/>
<path d="M61.9933 149.95L63.0745 134.735L66.1296 134.963L65.6518 141.717L72.3025 135.405L76.4011 135.709L70.291 141.211L75.6216 150.937L71.6739 150.646L68.028 143.222L65.3752 145.574L65.0484 150.178L61.9933 149.95Z" fill="#181818"/>
<path d="M17.8277 113.639C16.6661 114.436 15.8343 115.632 15.4892 117.003C15.3888 117.571 15.4133 118.154 15.561 118.711C15.7087 119.269 15.976 119.786 16.3442 120.228C16.6836 120.685 17.1186 121.061 17.6182 121.329C18.1178 121.598 18.67 121.753 19.2358 121.784C20.6556 121.768 22.0201 121.228 23.0703 120.266C24.2331 119.483 25.0731 118.301 25.4339 116.94C25.5092 116.374 25.4707 115.798 25.3205 115.248C25.1704 114.697 24.9117 114.182 24.5599 113.733C24.2081 113.285 23.7703 112.912 23.2725 112.638C22.7747 112.363 22.2271 112.192 21.6622 112.134C20.2431 112.142 18.8772 112.678 17.8277 113.639Z" fill="white"/>
<path d="M145.687 95.8564L130.99 92.6692L131.631 89.659L143.839 92.315L145.435 84.8276L147.937 85.3715L145.687 95.8564Z" fill="#181818"/>
<path d="M41.7399 23.9419L34.8755 10.3583L44.883 5.22339L46.0522 7.52526L38.7603 11.2563L40.2815 14.2664L47.0705 10.801L48.2272 13.0902L41.4382 16.5557L43.3114 20.2614L50.8548 16.3912L52.024 18.6805L41.7399 23.9419Z" fill="#181818"/>
<path d="M97.3088 84.3597C94.0023 82.3867 90.5449 80.4136 86.9619 78.5418C83.3527 76.641 79.6472 74.9312 75.8606 73.4195C73.969 72.6665 72.0384 72.0163 70.0774 71.4718C68.1036 70.9406 66.1297 70.4473 64.1685 70.0173C60.3315 69.1324 56.4219 68.6032 52.4889 68.4363C50.6225 68.3681 48.7538 68.4739 46.9068 68.7525C45.1482 69.025 43.4323 69.5267 41.8025 70.245C40.2058 70.9406 38.76 71.8765 37.2514 72.6227C35.8199 73.4004 34.3321 74.0684 32.8008 74.621C31.3758 75.0976 29.8891 75.3618 28.388 75.4052C27.8898 75.437 27.3901 75.437 26.8919 75.4052C40.7213 79.8951 53.0295 82.6017 62.4964 78.7821C72.7176 74.5325 76.6904 76.632 76.6904 76.632C73.3387 76.7156 70.0583 77.6231 67.1355 79.2754C64.4475 80.8962 61.2845 81.5308 58.1841 81.0713C66.9846 87.1801 73.8365 85.1692 78.8528 83.2467C81.6876 82.0976 84.7408 81.5965 87.7916 81.7796C85.164 82.2729 83.3411 83.2973 79.8083 85.4601C76.2755 87.6228 71.4478 86.2821 71.4478 86.2821C76.3384 90.7594 83.2279 89.9879 86.9744 88.6472C89.3078 87.8117 91.6933 87.1314 94.1154 86.611C92.9833 87.2801 92.0533 88.2463 91.425 89.4061C93.8894 88.1932 96.5788 87.5125 99.3203 87.4078C100.589 87.456 101.851 87.6168 103.092 87.8884C101.231 86.7122 99.3203 85.5359 97.3088 84.3597Z" fill="#181818"/>
<path d="M119.499 126.501L114.256 123.554L116.343 129.195L119.499 126.501Z" fill="white"/>
</svg>
